<?xml version="1.0" encoding="UTF-8" standalone="no"?>
<!-- Created with Inkscape (http://www.inkscape.org/) -->

<svg
   xmlns:dc="http://purl.org/dc/elements/1.1/"
   xmlns:cc="http://creativecommons.org/ns#"
   xmlns:rdf="http://www.w3.org/1999/02/22-rdf-syntax-ns#"
   xmlns:svg="http://www.w3.org/2000/svg"
   xmlns="http://www.w3.org/2000/svg"
   xmlns:xlink="http://www.w3.org/1999/xlink"
   version="1.1"
   width="170.99001"
   height="61"
   id="svg2"
   xml:space="preserve"><metadata
     id="metadata8"><rdf:RDF><cc:Work
         rdf:about=""><dc:format>image/svg+xml</dc:format><dc:type
           rdf:resource="http://purl.org/dc/dcmitype/StillImage" /><dc:title></dc:title></cc:Work></rdf:RDF></metadata><defs
     id="defs6"><clipPath
       id="clipPath26"><path
         d="m 77.492,636.698 174.087,0 0,67 -174.087,0 0,-67 z"
         id="path28" /></clipPath><clipPath
       id="clipPath122"><path
         d="M 0,0 582,0 582,780 0,780 0,0 z"
         id="path124" /></clipPath></defs><g
     transform="matrix(1.25,0,0,-1.25,0,61)"
     id="g10"><g
       transform="translate(-95.670322,-643.7009)"
       id="g22"><g
         clip-path="url(#clipPath26)"
         id="g24"><g
           transform="translate(193.3557,689.0378)"
           id="g30"><path
             d="m 0,0 3.659,0 0,-17.421 c 0,-1.543 -1.461,-1.785 -1.947,-1.785 -0.8,0 -1.282,0.548 -1.556,0.856 l -10.058,12.8 0,-13.393 -3.647,0 0,17.706 c 0,0.778 0.659,1.732 2.01,1.732 0.965,0 1.383,-0.421 1.649,-0.711 L 0,-12.651 0,0 z"
             id="path32"
             style="fill:#29559b;fill-opacity:1;fill-rule:nonzero;stroke:none" /></g><g
           transform="translate(100.182,685.662)"
           id="g34"><path
             d="m 0,0 0,-4.777 4.393,0 c 2.138,0 3.184,0.475 3.184,2.403 C 7.577,-0.421 6.531,0 4.393,0 L 0,0 z m 5.249,3.376 c 4.037,0 5.961,-1.713 5.961,-5.699 0,-2.93 -1.233,-4.802 -3.443,-5.329 l 4.25,-7.918 -4.036,0 -3.856,7.645 -4.125,0 0,-7.645 -3.586,0 0,18.946 8.835,0 z"
             id="path36"
             style="fill:#29559b;fill-opacity:1;fill-rule:nonzero;stroke:none" /></g><path
           d="m 148.044,689.038 3.75,0 0,-18.945 -3.75,0 0,18.945 z"
           id="path38"
           style="fill:#29559b;fill-opacity:1;fill-rule:nonzero;stroke:none" /><g
           transform="translate(202.8794,679.0682)"
           id="g40"><path
             d="m 0,0 c 0,-4.251 1.147,-5.675 4.115,-5.675 l 7.166,0 0,-3.301 -7.33,0 c -2.033,0 -3.599,0.187 -5.234,1.666 -1.731,1.555 -2.574,4.038 -2.574,7.471 0,6.705 2.503,9.82 7.9,9.82 l 7.238,0 0,-3.248 -7.166,0 C 1.147,6.733 0,4.699 0,0"
             id="path42"
             style="fill:#29559b;fill-opacity:1;fill-rule:nonzero;stroke:none" /></g><g
           transform="translate(166.0853,687.4231)"
           id="g44"><path
             d="M 0,0 C -0.22,0.453 -0.297,0.47 -0.44,0.47 -0.585,0.47 -0.667,0.453 -0.885,0 l -8.438,-17.331 -3.881,0 9.053,18.541 c 0.966,1.976 2.099,2.829 3.711,2.829 1.608,0 2.737,-0.857 3.701,-2.829 l 9.052,-18.541 -3.866,0 L 0,0 z"
             id="path46"
             style="fill:#29559b;fill-opacity:1;fill-rule:nonzero;stroke:none" /></g><g
           transform="translate(165.635,682.0475)"
           id="g48"><path
             d="m 0,0 -5.719,-11.955 3.212,0 5.024,0 3.21,0 L 0,0 z"
             id="path50"
             style="fill:#d72729;fill-opacity:1;fill-rule:nonzero;stroke:none" /></g><g
           transform="translate(146.2136,673.392)"
           id="g52"><path
             d="m 0,0 -9.521,0.001 -1.093,0 0,1.094 0,14.551 -3.577,0 0,-15.831 c 0,-1.729 1.427,-3.117 3.132,-3.117 l 9.172,0 L 0,0 z"
             id="path54"
             style="fill:#29559b;fill-opacity:1;fill-rule:nonzero;stroke:none" /></g><g
           transform="translate(116.3824,680.8851)"
           id="g56"><path
             d="M 0,0 C 0.473,3.099 2.1,4.965 5.119,4.965 8.816,4.965 9.875,1.997 9.884,0 L 0,0 z M 4.951,8.413 C -0.952,8.404 -3.933,4.136 -3.948,-1.33 c 0.014,-5.461 3.558,-9.628 9.468,-9.638 3.786,0 6.431,1.677 7.608,2.778 l -1.712,2.805 c -0.782,-0.746 -2.188,-2.174 -5.798,-2.174 -2.651,0 -5.605,1.916 -5.605,4.225 l -0.008,0.186 13.417,0 0.005,0.021 c 1.042,7.549 -2.351,11.54 -8.476,11.54"
             id="path58"
             style="fill:#29559b;fill-opacity:1;fill-rule:nonzero;stroke:none" /></g><g
           transform="translate(218.7663,680.8851)"
           id="g60"><path
             d="M 0,0 C 0.474,3.099 2.099,4.965 5.118,4.965 8.816,4.965 9.875,1.997 9.884,0 L 0,0 z M 4.952,8.413 C -0.953,8.404 -3.932,4.136 -3.946,-1.33 c 0.014,-5.461 3.556,-9.628 9.466,-9.638 3.788,0 6.432,1.677 7.609,2.778 l -1.715,2.805 c -0.781,-0.746 -2.186,-2.174 -5.796,-2.174 -2.652,0 -5.605,1.916 -5.605,4.225 l -0.009,0.186 13.417,0 0.004,0.021 C 14.47,4.422 11.077,8.413 4.952,8.413"
             id="path62"
             style="fill:#29559b;fill-opacity:1;fill-rule:nonzero;stroke:none" /></g><g
           transform="translate(105.5764,636.908)"
           id="g66" /><g
           transform="translate(113.0763,648.8516)"
           id="g70" /><g
           transform="translate(118.3049,644.6829)"
           id="g74" /><g
           transform="translate(124.2646,641.5383)"
           id="g78" /><g
           transform="translate(129.8175,636.7194)"
           id="g82" /><g
           transform="translate(137.5226,636.7879)"
           id="g86" /><g
           transform="translate(143.8616,644.6829)"
           id="g90" /><g
           transform="translate(148.6797,636.7194)"
           id="g94" /><g
           transform="translate(157.3249,636.7194)"
           id="g98" /><g
           transform="translate(163.7495,636.7879)"
           id="g102" /><g
           transform="translate(169.5597,636.7194)"
           id="g106" /><g
           transform="translate(178.7525,644.6829)"
           id="g110" /><g
           transform="translate(183.2795,644.939)"
           id="g114" /></g></g><g
       transform="translate(-1.1060153,1.1060153)"
       id="g118" /><image
       xlink:href="file:///C:/Users/Administrator/Desktop/2000px-RADAGroup.svg.png"
       x="-240.03722"
       y="-660.49078"
       width="173.50266"
       height="39.949402"
       transform="scale(1,-1)"
       id="image3117" /><path
       d="m 1.2027594,20.198083 2.874764,0 0,-19.3956304 -2.874764,0 0,19.3956304 z"
       id="path64"
       style="fill:#d72729;fill-opacity:1;fill-rule:nonzero;stroke:none" /><path
       d="m 14.557364,0.8024426 0,9.6445104 c 0,1.68685 -0.96619,2.73094 -2.874764,2.73094 -1.018297,0 -1.9591791,-0.18656 -2.517461,-0.42799 l 0,-11.9474604 -2.7735232,0 0,13.7158304 c 1.3741077,0.58946 3.1293334,1.01744 5.2656762,1.01744 3.842446,0 5.698903,-1.7668 5.698903,-4.82068 l 0,-9.9125904 -2.798831,0 z"
       id="path68"
       style="fill:#d72729;fill-opacity:1;fill-rule:nonzero;stroke:none" /><path
       d="m 25.722772,19.526463 c -1.578062,0 -2.721416,-0.69606 -2.721416,-2.49108 l 0,-1.79502 2.847964,0 0,-2.19792 -2.847964,0 0,-12.2406304 -2.722907,0 0,12.2406304 -1.805841,0 0,2.19792 1.805841,0 0,1.79502 c 0,3.32196 2.136343,4.85047 4.960482,4.85047 0.279887,0 0.661005,-0.0282 0.864959,-0.0564 l 0,-2.30295 -0.381118,0 z"
       id="path72"
       style="fill:#d72729;fill-opacity:1;fill-rule:nonzero;stroke:none" /><path
       d="m 33.506808,12.991173 c -0.406426,0.10661 -0.890267,0.15991 -1.399416,0.15991 -0.789036,0 -1.628687,-0.13326 -2.161651,-0.37468 l 0,-11.9741204 -2.773533,0 0,13.7158404 c 1.32201,0.58945 3.281189,1.019 5.316302,1.019 0.611872,0 1.146328,-0.0282 1.551262,-0.10974 l -0.532964,-2.43621 z"
       id="path76"
       style="fill:#d72729;fill-opacity:1;fill-rule:nonzero;stroke:none" /><path
       d="m 42.379256,8.0613726 c -2.79883,-0.1599 -5.596179,-0.39976 -5.596179,-2.97393 0,-1.52694 1.118046,-2.46443 3.230574,-2.46443 0.890267,0 1.933872,0.15991 2.365605,0.37468 l 0,5.06368 z m -2.289682,-7.55476 c -3.943677,0 -5.926682,1.68842 -5.926682,4.52753 0,4.01959 4.070216,4.7423 8.216364,4.9821604 l 0,0.9124 c 0,1.82167 -1.144846,2.46443 -2.900071,2.46443 -1.296693,0 -2.874754,-0.42955 -3.790329,-0.88418 l -0.71162,2.00979 c 1.092738,0.50951 2.949195,1.01744 4.781836,1.01744 3.281189,0 5.265677,-1.34038 5.265677,-4.90377 l 0,-9.1083604 c -0.991498,-0.56124 -3.001303,-1.01744 -4.935175,-1.01744"
       id="path80"
       style="fill:#d72729;fill-opacity:1;fill-rule:nonzero;stroke:none" /><path
       d="m 50.646085,0.5067726 c -1.601877,0 -3.28118,0.4562 -4.27417,1.01744 l 0.942375,2.25122 c 0.710128,-0.4562 2.213749,-0.93749 3.255872,-0.93749 1.500656,0 2.492153,0.77759 2.492153,1.98158 0,1.31374 -1.042123,1.82324 -2.441538,2.35783 -1.831149,0.72428 -3.893051,1.60689 -3.893051,4.3127504 0,2.38604 1.756707,4.04624 4.810118,4.04624 1.652502,0 3.02661,-0.42955 3.9928,-1.01744 l -0.864959,-2.03645 c -0.61038,0.39977 -1.832631,0.85597 -2.824139,0.85597 -1.450031,0 -2.264374,-0.80423 -2.264374,-1.84832 0,-1.31374 1.018297,-1.7683704 2.367097,-2.3029604 1.907082,-0.74936 4.0196,-1.58181 4.0196,-4.39427 0,-2.59768 -1.883256,-4.2861 -5.317784,-4.2861"
       id="path84"
       style="fill:#d72729;fill-opacity:1;fill-rule:nonzero;stroke:none" /><path
       d="m 62.11697,0.6141626 c -2.419206,0 -3.766513,1.42034 -3.766513,4.2328 l 0,8.1959504 -1.857949,0 0,2.19792 1.857949,0 0,3.35018 2.722907,0.88262 0,-4.2328 2.772041,0 0,-2.19792 -2.772041,0 0,-8.0344804 c 0,-1.31374 0.814344,-1.82324 1.831149,-1.82324 0.330503,0 0.711621,0.0799 0.940892,0.18813 l 0,-2.43778 c -0.330502,-0.16148 -1.018297,-0.32138 -1.728435,-0.32138"
       id="path88"
       style="fill:#d72729;fill-opacity:1;fill-rule:nonzero;stroke:none" /><path
       d="m 71.554105,12.991173 c -0.4094,0.10661 -0.891759,0.15991 -1.400908,0.15991 -0.789026,0 -1.627195,-0.13326 -2.161651,-0.37468 l 0,-11.9741204 -2.773525,0 0,13.7158404 c 1.323492,0.58945 3.281191,1.019 5.316294,1.019 0.61039,0 1.146338,-0.0282 1.552764,-0.10974 l -0.532974,-2.43621 z"
       id="path92"
       style="fill:#d72729;fill-opacity:1;fill-rule:nonzero;stroke:none" /><path
       d="m 78.727025,0.5067726 c -3.613174,0 -5.545564,1.58181 -5.545564,5.19537 l 0,9.5379004 2.772041,0 0,-9.5896404 c 0,-1.84832 0.942374,-2.7325 2.773523,-2.7325 1.068913,0 1.983005,0.18655 2.441539,0.40133 l 0,11.9208104 2.77203,0 0,-13.7158304 c -1.118046,-0.58946 -3.127841,-1.01744 -5.213569,-1.01744"
       id="path96"
       style="fill:#d72729;fill-opacity:1;fill-rule:nonzero;stroke:none" /><path
       d="m 91.597487,0.5067726 c -3.051918,0 -6.029395,2.30296 -6.029395,7.52968 0,5.2220204 2.977477,7.4998904 6.029395,7.4998904 1.500656,0 2.67081,-0.4029 3.510451,-0.99236 l -0.914082,-2.11796 c -0.561257,0.43268 -1.400908,0.69919 -2.240559,0.69919 -1.831149,0 -3.510451,-1.52694 -3.510451,-5.0636804 0,-3.53674 1.729918,-5.08876 3.510451,-5.08876 0.839651,0 1.679302,0.26651 2.240559,0.69449 l 0.914082,-2.1697 c -0.864959,-0.61454 -2.009795,-0.99079 -3.510451,-0.99079"
       id="path100"
       style="fill:#d72729;fill-opacity:1;fill-rule:nonzero;stroke:none" /><path
       d="m 101.16205,0.6141626 c -2.417707,0 -3.765015,1.42034 -3.765015,4.2328 l 0,8.1959504 -1.857948,0 0,2.19792 1.857948,0 0,3.35018 2.721415,0.88262 0,-4.2328 2.77352,0 0,-2.19792 -2.77352,0 0,-8.0344804 c 0,-1.31374 0.81434,-1.82324 1.83413,-1.82324 0.32901,0 0.71013,0.0799 0.93939,0.18813 l 0,-2.43778 c -0.3305,-0.16148 -1.0168,-0.32138 -1.72992,-0.32138"
       id="path104"
       style="fill:#d72729;fill-opacity:1;fill-rule:nonzero;stroke:none" /><path
       d="m 109.81194,0.5067726 c -3.61169,0 -5.54556,1.58181 -5.54556,5.19537 l 0,9.5379004 2.77353,0 0,-9.5896404 c 0,-1.84832 0.94088,-2.7325 2.77203,-2.7325 1.06892,0 1.983,0.18655 2.44154,0.40133 l 0,11.9208104 2.77352,0 0,-13.7158304 c -1.11953,-0.58946 -3.12933,-1.01744 -5.21506,-1.01744"
       id="path108"
       style="fill:#d72729;fill-opacity:1;fill-rule:nonzero;stroke:none" /><path
       d="m 123.49764,12.991173 c -0.40792,0.10661 -0.89027,0.15991 -1.40091,0.15991 -0.78754,0 -1.62719,-0.13326 -2.16016,-0.37468 l 0,-11.9741204 -2.77352,0 0,13.7158404 c 1.322,0.58945 3.28118,1.019 5.31778,1.019 0.60889,0 1.14336,-0.0282 1.54978,-0.10974 l -0.53297,-2.43621 z"
       id="path112"
       style="fill:#d72729;fill-opacity:1;fill-rule:nonzero;stroke:none" /><path
       d="m 130.23717,13.392663 c -2.13634,0 -3.53576,-1.71507 -3.58637,-4.7140804 l 6.63978,0.96257 c -0.0268,2.5177304 -1.22226,3.7515104 -3.05341,3.7515104 m 5.69891,-5.3051104 -9.10813,-1.33881 c 0.27989,-2.59926 1.88178,-3.91142 4.19826,-3.91142 1.37261,0 2.84944,0.34803 3.79033,0.88418 l 0.81434,-2.19635 c -1.06891,-0.58946 -2.90006,-1.01901 -4.78333,-1.01901 -4.3233,0 -6.74101,2.9222 -6.74101,7.52968 0,4.4177904 2.34029,7.4998904 6.18274,7.4998904 3.55957,0 5.6736,-2.46599 5.6736,-6.3492004 0,-0.34803 0,-0.72427 -0.0268,-1.09896"
       id="path116"
       style="fill:#d72729;fill-opacity:1;fill-rule:nonzero;stroke:none" /></g></svg>